<!DOCTYPE svg PUBLIC "-//W3C//DTD SVG 20010904//EN" "http://www.w3.org/TR/2001/REC-SVG-20010904/DTD/svg10.dtd">
<svg version="1.0" xmlns="http://www.w3.org/2000/svg" width="531px" height="538px" viewBox="0 0 5310 5380" preserveAspectRatio="xMidYMid meet">
<g id="layer101" fill="#cd021a" stroke="none">
 <path d="M10 5362 c0 -10 49 -90 108 -178 59 -87 207 -305 327 -484 121 -179 275 -406 342 -505 67 -99 196 -290 287 -425 158 -235 249 -370 567 -840 184 -271 588 -871 1013 -1500 91 -135 218 -324 283 -420 66 -96 211 -312 325 -480 113 -168 239 -354 280 -415 l75 -110 332 -3 c182 -1 331 2 331 6 0 5 -106 164 -235 353 -130 189 -274 400 -321 469 -47 69 -184 269 -304 445 -120 176 -262 383 -314 460 -52 77 -149 219 -215 315 -66 96 -181 265 -256 375 -75 110 -186 272 -246 360 -109 158 -164 239 -362 530 -56 83 -179 263 -273 400 -94 138 -213 311 -263 385 -157 229 -518 758 -615 900 -51 74 -129 190 -175 258 l-83 122 -304 0 c-287 0 -304 -1 -304 -18z"/>
 </g>
<g id="layer102" fill="#03366f" stroke="none">
 <path d="M1037 5350 c10 -16 121 -182 246 -367 126 -186 332 -491 459 -678 126 -187 355 -527 509 -755 154 -228 346 -512 426 -630 154 -228 908 -1344 1225 -1815 104 -154 288 -426 409 -605 121 -179 246 -364 277 -412 l57 -87 333 -1 c227 0 332 3 332 11 0 5 -102 160 -227 342 -125 183 -274 402 -333 487 -132 194 -183 269 -289 423 -46 67 -125 183 -175 257 -51 74 -216 315 -366 535 -150 220 -319 468 -376 550 -56 83 -203 299 -327 480 -124 182 -294 431 -379 554 -84 124 -236 347 -338 495 -102 149 -267 390 -366 536 -100 146 -214 312 -254 370 -39 58 -106 158 -148 222 l-77 117 -318 0 -319 1 19 -30z"/>
 </g>

</svg>