<svg version="1.1" xmlns="http://www.w3.org/2000/svg" xmlns:xlink="http://www.w3.org/1999/xlink" width="48" height="48"><defs><linearGradient x1="11.85482" y1="11.67152" x2="56.66731" y2="56.85065" gradientUnits="userSpaceOnUse" id="color-1"><stop offset="0" stop-color="#000000" stop-opacity="0.29"></stop><stop offset="1" stop-color="#000000" stop-opacity="0"></stop></linearGradient><filter id="dropshadow-base"><feColorMatrix type="matrix" values="0 0 0 0 0  0 0 0 0 0  0 0 0 0 0  0 0 0 .8 0"></feColorMatrix> <feOffset dx="0" dy="1"></feOffset> <feGaussianBlur stdDeviation="1"></feGaussianBlur> <feComposite in="SourceGraphic"></feComposite></filter><filter id="dropshadow-banner" x="-10%" y="-10%" width="120%" height="130%"><feColorMatrix type="matrix" values="0 0 0 0 0  0 0 0 0 0  0 0 0 0 0  0 0 0 .4 0"></feColorMatrix> <feOffset dx="0" dy="1"></feOffset> <feGaussianBlur stdDeviation="0.5"></feGaussianBlur> <feComposite in="SourceGraphic"></feComposite></filter></defs><g fill="none" fill-rule="nonzero" stroke="none" stroke-width="none" stroke-linecap="butt" stroke-linejoin="miter" stroke-miterlimit="10" stroke-dasharray="" stroke-dashoffset="0" font-family="none" font-weight="none" font-size="none" text-anchor="none" style="mix-blend-mode: normal"><path d="M7,43c-1.10457,0 -2,-0.89543 -2,-2v-34c0,-1.10457 0.89543,-2 2,-2h34c1.10457,0 2,0.89543 2,2v34c0,1.10457 -0.89543,2 -2,2z" id="base 1 9" fill="#ffffff" stroke-width="1"></path><path d="M13.84848,33.21199c0.55455,-0.82037 1.26034,-1.86073 1.56742,-2.31445c0.30707,-0.45373 0.89828,-1.3291 1.31534,-1.94781c0.72413,-1.07703 1.14119,-1.69573 2.59861,-3.84979c0.84328,-1.24201 2.69485,-3.99186 4.64266,-6.87462c0.41706,-0.61872 0.99911,-1.48492 1.29701,-1.9249c0.30248,-0.43998 0.96703,-1.42992 1.4895,-2.19988c0.51788,-0.76996 1.09536,-1.62242 1.28326,-1.90198l0.34373,-0.50414l1.52158,-0.01375c0.82294,-0.00452 1.49867,0.00879 1.51663,0.02676l0.99403,0.99403c0.2001,-0.29742 0.35342,-0.52675 0.41793,-0.62663l0.26124,-0.39873l1.52617,-0.00459c1.00263,0 1.48593,0.01277 1.51968,0.04651l6.85675,6.85675v22.42522c0,1.10457 -0.89543,2 -2,2h-22.41248l-6.72157,-6.72157c-0.00908,-0.00908 -0.01113,-0.0198 -0.01113,-0.03245l0.00002,0.00001c0,-0.04582 0.22458,-0.41247 0.49498,-0.81579c0.2704,-0.39873 0.9487,-1.39784 1.49866,-2.21821z" fill="url(#color-1)" stroke-width="1"></path><path d="M11.85484,36.24599c0,-0.04583 0.22457,-0.41248 0.49497,-0.81579c0.2704,-0.39873 0.9487,-1.39784 1.49867,-2.21821c0.55455,-0.82037 1.26035,-1.86073 1.56741,-2.31445c0.30707,-0.45372 0.89828,-1.32909 1.31534,-1.94781c0.72413,-1.07702 1.14119,-1.69574 2.59861,-3.84979c0.84329,-1.24201 2.69485,-3.99186 4.64266,-6.87462c0.41706,-0.61872 0.99911,-1.48492 1.29701,-1.92489c0.30248,-0.43998 0.96703,-1.42992 1.4895,-2.19988c0.51789,-0.76996 1.09536,-1.62241 1.28326,-1.90198l0.34373,-0.50414l1.52158,-0.01375c0.83412,-0.00458 1.517,0.00917 1.517,0.0275c0,0.02292 -0.48581,0.75162 -1.07702,1.61783c-0.5958,0.8662 -1.25576,1.83323 -1.47117,2.14946c-0.2154,0.31623 -0.84329,1.23285 -1.39326,2.03947c-0.54997,0.80662 -1.20077,1.75532 -1.43909,2.10822c-0.23832,0.3529 -0.68288,1.00369 -0.98536,1.44367c-0.30248,0.43998 -0.82954,1.21452 -1.17327,1.71865c-0.34373,0.50414 -0.85245,1.2466 -1.12744,1.64991c-0.49956,0.72413 -0.75162,1.09536 -1.65907,2.42903c-0.25665,0.3804 -0.82037,1.20535 -1.25118,1.83323c-0.43081,0.63246 -0.9762,1.42534 -1.20535,1.76449c-0.71954,1.04953 -2.37403,3.47397 -2.81859,4.12477c-0.23374,0.33915 -0.59122,0.87078 -0.80204,1.18243l-0.3804,0.55914h-1.39326c-1.31534,0 -1.39326,-0.00458 -1.39326,-0.0825zM16.56166,36.19099c0.04583,-0.07333 0.55455,-0.83412 1.12744,-1.68199c0.57747,-0.85245 1.52158,-2.25029 2.10363,-3.10733c0.57747,-0.85704 1.62699,-2.41528 2.33279,-3.46022c0.70579,-1.04494 1.58575,-2.34654 1.95239,-2.88734c0.70579,-1.04494 4.16144,-6.15966 5.61427,-8.31829c0.47664,-0.70579 1.31993,-1.95239 1.87448,-2.77276c0.55455,-0.82037 1.12744,-1.66824 1.26951,-1.88823l0.26124,-0.39873l1.52617,-0.00458c1.04036,0 1.52158,0.01375 1.52158,0.05041c0,0.02292 -0.46747,0.73329 -1.04036,1.56741c-0.57288,0.8387 -1.25576,1.8424 -1.52617,2.23196c-0.60497,0.88912 -0.8387,1.23285 -1.32451,1.93864c-0.21082,0.30707 -0.57288,0.8387 -0.80204,1.17785c-0.23374,0.33915 -0.98994,1.44367 -1.67741,2.45195c-0.68746,1.00828 -1.462,2.14488 -1.72324,2.52069c-0.25665,0.3804 -0.93036,1.37034 -1.49867,2.19988c-0.5683,0.83412 -1.34743,1.97531 -1.73699,2.53903c-0.38498,0.5683 -1.08161,1.59033 -1.54908,2.26862c-0.46747,0.68288 -1.22368,1.7874 -1.67741,2.45653c-0.45831,0.66913 -0.98078,1.42992 -1.1641,1.69574c-0.17874,0.26582 -0.48581,0.72413 -0.6783,1.01744l-0.3529,0.53622h-1.45742l-1.462,0.00458z" fill="none" stroke-width="0"></path><g stroke-width="1"><g id="layer101 1" fill="#cd021a"><path d="M11.85484,36.24599c0,-0.04583 0.22457,-0.41248 0.49497,-0.81579c0.2704,-0.39873 0.9487,-1.39784 1.49867,-2.21821c0.55455,-0.82037 1.26035,-1.86073 1.56741,-2.31445c0.30707,-0.45372 0.89828,-1.32909 1.31534,-1.94781c0.72413,-1.07702 1.14119,-1.69574 2.59861,-3.84979c0.84329,-1.24201 2.69485,-3.99186 4.64266,-6.87462c0.41706,-0.61872 0.99911,-1.48492 1.29701,-1.92489c0.30248,-0.43998 0.96703,-1.42992 1.4895,-2.19988c0.51789,-0.76996 1.09536,-1.62241 1.28326,-1.90198l0.34373,-0.50414l1.52158,-0.01375c0.83412,-0.00458 1.517,0.00917 1.517,0.0275c0,0.02292 -0.48581,0.75162 -1.07702,1.61783c-0.5958,0.8662 -1.25576,1.83323 -1.47117,2.14946c-0.2154,0.31623 -0.84329,1.23285 -1.39326,2.03947c-0.54997,0.80662 -1.20077,1.75532 -1.43909,2.10822c-0.23832,0.3529 -0.68288,1.00369 -0.98536,1.44367c-0.30248,0.43998 -0.82954,1.21452 -1.17327,1.71865c-0.34373,0.50414 -0.85245,1.2466 -1.12744,1.64991c-0.49956,0.72413 -0.75162,1.09536 -1.65907,2.42903c-0.25665,0.3804 -0.82037,1.20535 -1.25118,1.83323c-0.43081,0.63246 -0.9762,1.42534 -1.20535,1.76449c-0.71954,1.04953 -2.37403,3.47397 -2.81859,4.12477c-0.23374,0.33915 -0.59122,0.87078 -0.80204,1.18243l-0.3804,0.55914h-1.39326c-1.31534,0 -1.39326,-0.00458 -1.39326,-0.0825z"></path></g><g id="layer102 1" fill="#03366f"><path d="M16.56166,36.19099c0.04583,-0.07333 0.55455,-0.83412 1.12744,-1.68199c0.57747,-0.85245 1.52158,-2.25029 2.10363,-3.10733c0.57747,-0.85704 1.62699,-2.41528 2.33279,-3.46022c0.70579,-1.04494 1.58575,-2.34654 1.95239,-2.88734c0.70579,-1.04494 4.16144,-6.15966 5.61427,-8.31829c0.47664,-0.70579 1.31993,-1.95239 1.87448,-2.77276c0.55455,-0.82037 1.12744,-1.66824 1.26951,-1.88823l0.26124,-0.39873l1.52617,-0.00458c1.04036,0 1.52158,0.01375 1.52158,0.05041c0,0.02292 -0.46747,0.73329 -1.04036,1.56741c-0.57288,0.8387 -1.25576,1.8424 -1.52617,2.23196c-0.60497,0.88912 -0.8387,1.23285 -1.32451,1.93864c-0.21082,0.30707 -0.57288,0.8387 -0.80204,1.17785c-0.23374,0.33915 -0.98994,1.44367 -1.67741,2.45195c-0.68746,1.00828 -1.462,2.14488 -1.72324,2.52069c-0.25665,0.3804 -0.93036,1.37034 -1.49867,2.19988c-0.5683,0.83412 -1.34743,1.97531 -1.73699,2.53903c-0.38498,0.5683 -1.08161,1.59033 -1.54908,2.26862c-0.46747,0.68288 -1.22368,1.7874 -1.67741,2.45653c-0.45831,0.66913 -0.98078,1.42992 -1.1641,1.69574c-0.17874,0.26582 -0.48581,0.72413 -0.6783,1.01744l-0.3529,0.53622h-1.45742l-1.462,0.00458z"></path></g></g><path d="M2,24c0,-12.15026 9.84974,-22 22,-22c12.15026,0 22,9.84974 22,22c0,12.15026 -9.84974,22 -22,22c-12.15026,0 -22,-9.84974 -22,-22z" id="base 1 5 1" fill="none" stroke-width="1"></path><path d="M2,24c0,-12.15026 9.84974,-22 22,-22c12.15026,0 22,9.84974 22,22c0,12.15026 -9.84974,22 -22,22c-12.15026,0 -22,-9.84974 -22,-22z" id="base 1 1 1" fill="none" stroke-width="1"></path><g stroke-width="1" font-family="Roboto, sans-serif" font-weight="400" font-size="14" text-anchor="start"><g id="layer101 1 1" fill="#c5081a"></g><g id="layer102 1 1" fill="#07376d"></g><g id="layer103 1 1" fill="#fefefe"></g></g><rect x="2" y="2" width="44" height="22" fill="none" stroke-width="1"></rect><path d="M2,24v-22h44v22z" fill="none" stroke-width="1"></path><path d="M2,24v-22h44v22z" fill="none" stroke-width="1"></path><path d="M2,24v-22h44v22z" fill="none" stroke-width="1"></path><path d="M2,24v-22h44v22z" fill="none" stroke-width="1"></path><g stroke-width="1" font-family="Roboto, sans-serif" font-weight="400" font-size="14" text-anchor="start"><g id="layer101 1 1" fill="#cd021a"></g><g id="layer102 1 1" fill="#03366f"></g></g><rect x="2" y="2" width="44" height="22" fill="none" stroke-width="1"></rect><path d="M2,24v-22h44v22z" fill="none" stroke-width="1"></path><path d="M2,24v-22h44v22z" fill="none" stroke-width="1"></path><path d="M2,24v-22h44v22z" fill="none" stroke-width="1"></path><path d="M2,24v-22h44v22z" fill="none" stroke-width="1"></path></g></svg>