<?xml version="1.0" encoding="UTF-8" standalone="no"?>
<svg
   xmlns:dc="http://purl.org/dc/elements/1.1/"
   xmlns:cc="http://creativecommons.org/ns#"
   xmlns:rdf="http://www.w3.org/1999/02/22-rdf-syntax-ns#"
   xmlns:svg="http://www.w3.org/2000/svg"
   xmlns="http://www.w3.org/2000/svg"
   xmlns:sodipodi="http://sodipodi.sourceforge.net/DTD/sodipodi-0.dtd"
   xmlns:inkscape="http://www.inkscape.org/namespaces/inkscape"
   version="1.0"
   width="377"
   height="214"
   viewBox="0 0 3770 2140"
   preserveAspectRatio="xMidYMid meet"
   id="svg40"
   sodipodi:docname="logo2.svg"
   inkscape:version="0.92.2 5c3e80d, 2017-08-06">
  <metadata
     id="metadata46">
    <rdf:RDF>
      <cc:Work
         rdf:about="">
        <dc:format>image/svg+xml</dc:format>
        <dc:type
           rdf:resource="http://purl.org/dc/dcmitype/StillImage" />
        <dc:title></dc:title>
      </cc:Work>
    </rdf:RDF>
  </metadata>
  <defs
     id="defs44" />
  <sodipodi:namedview
     pagecolor="#ffffff"
     bordercolor="#666666"
     borderopacity="1"
     objecttolerance="10"
     gridtolerance="10"
     guidetolerance="10"
     inkscape:pageopacity="0"
     inkscape:pageshadow="2"
     inkscape:window-width="640"
     inkscape:window-height="480"
     id="namedview42"
     showgrid="false"
     inkscape:zoom="0.28125"
     inkscape:cx="455"
     inkscape:cy="107"
     inkscape:window-x="0"
     inkscape:window-y="0"
     inkscape:window-maximized="0"
     inkscape:current-layer="svg40" />
  <g
     id="g3760"
     transform="translate(-570,-620)">
    <g
       id="layer101"
       style="fill:#c5081a;stroke:none">
      <path
         id="path2"
         d="m 570,2756 c 0,-2 46,-72 103,-155 98,-144 302,-444 658,-971 92,-135 227,-334 300,-442 74,-108 177,-261 229,-339 149,-222 155,-229 195,-229 19,0 35,5 35,10 0,6 -47,79 -104,163 -150,220 -275,404 -372,547 -47,69 -154,225 -237,347 -84,123 -282,414 -441,648 l -289,425 h -39 c -21,0 -38,-2 -38,-4 z"
         inkscape:connector-curvature="0" />
      <path
         id="path4"
         d="m 790,2751 c 0,-5 60,-98 134,-207 74,-110 212,-314 307,-454 95,-140 213,-313 262,-385 48,-71 233,-344 410,-605 l 322,-475 53,-3 c 32,-2 52,1 52,8 0,5 -19,38 -43,73 -24,34 -135,197 -247,362 -112,165 -240,352 -283,415 -43,63 -151,222 -240,353 -89,130 -207,304 -262,385 -55,81 -154,226 -220,322 -65,96 -126,185 -134,197 -13,18 -26,22 -63,23 -27,0 -48,-4 -48,-9 z"
         inkscape:connector-curvature="0" />
      <path
         id="path6"
         d="m 1009,2743 c 5,-10 41,-63 78,-119 37,-55 135,-199 216,-320 82,-120 194,-286 250,-369 241,-353 580,-853 785,-1158 l 106,-157 h 98 c 54,0 98,3 98,6 0,3 -72,112 -161,242 -250,369 -419,618 -494,727 -37,55 -123,181 -190,280 -68,99 -230,338 -362,530 l -239,350 -97,3 c -92,3 -97,2 -88,-15 z"
         inkscape:connector-curvature="0" />
    </g>
    <path
       d="m 1310,2746 c 0,-8 39,-72 88,-143 48,-71 107,-159 132,-196 25,-37 48,-67 52,-67 5,0 8,19 8,41 0,96 49,174 136,219 69,35 218,35 314,1 118,-43 140,-61 227,-189 489,-721 775,-1144 779,-1157 5,-13 -12,-15 -129,-15 -126,0 -137,1 -150,21 l -15,20 -43,-23 c -38,-20 -58,-23 -144,-22 -109,0 -183,20 -257,69 -20,14 -40,25 -43,25 -3,0 32,-55 78,-122 46,-68 154,-228 241,-355 l 157,-233 h 800 c 519,0 799,3 799,10 0,8 -139,218 -209,317 -16,22 -20,22 -258,23 -134,0 -243,-3 -243,-6 0,-4 15,-27 33,-53 18,-25 43,-63 56,-83 l 23,-38 h -139 -139 l -60,88 -59,87 -127,5 c -70,3 -132,10 -137,15 -5,6 -37,48 -71,95 l -61,85 125,3 c 69,1 126,4 126,7 0,2 -53,82 -117,177 -339,500 -340,501 -330,595 20,195 270,267 535,153 29,-13 55,-20 58,-17 4,3 -31,61 -77,129 -46,68 -149,219 -229,336 l -144,212 h -793 c -673,0 -793,-2 -793,-14 z"
       id="path9"
       inkscape:connector-curvature="0"
       style="fill:#07376d;stroke:none" />
    <path
       d="m 1886,2355 c -29,-22 -22,-55 23,-119 22,-32 39,-62 37,-65 -3,-4 -58,-8 -123,-10 -65,-1 -119,-4 -120,-5 -4,-4 128,-191 136,-194 5,-2 12,13 15,32 19,100 149,153 286,116 23,-6 44,-9 47,-6 3,3 -18,40 -48,83 -29,43 -65,95 -79,115 -42,61 -128,88 -174,53 z"
       id="path11"
       inkscape:connector-curvature="0"
       style="fill:#07376d;stroke:none" />
    <path
       d="m 3073,1888 c -29,-14 -37,-41 -21,-71 7,-13 108,-164 223,-335 l 210,-311 243,-1 c 133,0 242,3 242,8 0,4 -31,51 -68,104 -37,53 -107,156 -155,227 l -88,131 h -142 -143 l -80,109 c -43,60 -90,115 -104,124 -35,20 -91,28 -117,15 z"
       id="path13"
       inkscape:connector-curvature="0"
       style="fill:#07376d;stroke:none" />
    <path
       d="m 2198,1869 c -10,-6 -18,-19 -18,-31 0,-11 44,-84 97,-161 122,-176 150,-196 286,-212 26,-3 40,0 43,10 5,12 -176,292 -224,348 -14,15 -68,35 -142,51 -14,2 -33,0 -42,-5 z"
       id="path15"
       inkscape:connector-curvature="0"
       style="fill:#07376d;stroke:none" />
  </g>
</svg>
