<!DOCTYPE svg PUBLIC "-//W3C//DTD SVG 20010904//EN" "http://www.w3.org/TR/2001/REC-SVG-20010904/DTD/svg10.dtd">
<svg version="1.0" xmlns="http://www.w3.org/2000/svg" width="1024px" height="338px" viewBox="0 0 10240 3380" preserveAspectRatio="xMidYMid meet">
<g id="layer101" fill="#c5081a" stroke="none">
 <path d="M570 2756 c0 -2 46 -72 103 -155 98 -144 302 -444 658 -971 92 -135 227 -334 300 -442 74 -108 177 -261 229 -339 149 -222 155 -229 195 -229 19 0 35 5 35 10 0 6 -47 79 -104 163 -150 220 -275 404 -372 547 -47 69 -154 225 -237 347 -84 123 -282 414 -441 648 l-289 425 -39 0 c-21 0 -38 -2 -38 -4z"/>
 <path d="M790 2751 c0 -5 60 -98 134 -207 74 -110 212 -314 307 -454 95 -140 213 -313 262 -385 48 -71 233 -344 410 -605 l322 -475 53 -3 c32 -2 52 1 52 8 0 5 -19 38 -43 73 -24 34 -135 197 -247 362 -112 165 -240 352 -283 415 -43 63 -151 222 -240 353 -89 130 -207 304 -262 385 -55 81 -154 226 -220 322 -65 96 -126 185 -134 197 -13 18 -26 22 -63 23 -27 0 -48 -4 -48 -9z"/>
 <path d="M1009 2743 c5 -10 41 -63 78 -119 37 -55 135 -199 216 -320 82 -120 194 -286 250 -369 241 -353 580 -853 785 -1158 l106 -157 98 0 c54 0 98 3 98 6 0 3 -72 112 -161 242 -250 369 -419 618 -494 727 -37 55 -123 181 -190 280 -68 99 -230 338 -362 530 l-239 350 -97 3 c-92 3 -97 2 -88 -15z"/>
 </g>
<g id="layer102" fill="#07376d" stroke="none">
 <path d="M1310 2746 c0 -8 39 -72 88 -143 48 -71 107 -159 132 -196 25 -37 48 -67 52 -67 5 0 8 19 8 41 0 96 49 174 136 219 69 35 218 35 314 1 118 -43 140 -61 227 -189 489 -721 775 -1144 779 -1157 5 -13 -12 -15 -129 -15 -126 0 -137 1 -150 21 l-15 20 -43 -23 c-38 -20 -58 -23 -144 -22 -109 0 -183 20 -257 69 -20 14 -40 25 -43 25 -3 0 32 -55 78 -122 46 -68 154 -228 241 -355 l157 -233 800 0 c519 0 799 3 799 10 0 8 -139 218 -209 317 -16 22 -20 22 -258 23 -134 0 -243 -3 -243 -6 0 -4 15 -27 33 -53 18 -25 43 -63 56 -83 l23 -38 -139 0 -139 0 -60 88 -59 87 -127 5 c-70 3 -132 10 -137 15 -5 6 -37 48 -71 95 l-61 85 125 3 c69 1 126 4 126 7 0 2 -53 82 -117 177 -339 500 -340 501 -330 595 20 195 270 267 535 153 29 -13 55 -20 58 -17 4 3 -31 61 -77 129 -46 68 -149 219 -229 336 l-144 212 -793 0 c-673 0 -793 -2 -793 -14z"/>
 <path d="M1886 2355 c-29 -22 -22 -55 23 -119 22 -32 39 -62 37 -65 -3 -4 -58 -8 -123 -10 -65 -1 -119 -4 -120 -5 -4 -4 128 -191 136 -194 5 -2 12 13 15 32 19 100 149 153 286 116 23 -6 44 -9 47 -6 3 3 -18 40 -48 83 -29 43 -65 95 -79 115 -42 61 -128 88 -174 53z"/>
 <path d="M3073 1888 c-29 -14 -37 -41 -21 -71 7 -13 108 -164 223 -335 l210 -311 243 -1 c133 0 242 3 242 8 0 4 -31 51 -68 104 -37 53 -107 156 -155 227 l-88 131 -142 0 -143 0 -80 109 c-43 60 -90 115 -104 124 -35 20 -91 28 -117 15z"/>
 <path d="M2198 1869 c-10 -6 -18 -19 -18 -31 0 -11 44 -84 97 -161 122 -176 150 -196 286 -212 26 -3 40 0 43 10 5 12 -176 292 -224 348 -14 15 -68 35 -142 51 -14 2 -33 0 -42 -5z"/>
 <path d="M5455 1801 c-62 -16 -95 -46 -95 -86 0 -9 10 -39 21 -66 l21 -49 93 0 92 0 -5 25 c-7 37 14 55 62 55 89 -1 165 -49 235 -149 43 -62 44 -74 3 -45 -68 48 -214 69 -272 39 -37 -19 -50 -43 -50 -95 0 -170 244 -447 457 -519 109 -37 224 -23 231 27 4 29 20 28 34 -3 11 -24 14 -25 110 -25 77 0 98 3 92 13 -11 19 -310 461 -382 566 -111 160 -213 248 -337 292 -65 23 -254 35 -310 20z m459 -411 c72 -34 168 -142 220 -246 42 -84 32 -124 -31 -124 -75 0 -147 49 -227 153 -87 115 -119 193 -90 221 21 22 79 20 128 -4z"/>
 <path d="M4815 1557 c-16 -8 -38 -24 -49 -35 -24 -27 -32 -99 -16 -148 33 -106 151 -258 272 -350 141 -109 341 -161 470 -122 120 36 118 169 -4 345 -88 127 -213 227 -355 285 -67 27 -93 32 -183 35 -75 2 -114 0 -135 -10z m293 -137 c81 -37 210 -193 256 -309 15 -39 15 -45 1 -67 -21 -32 -82 -32 -150 0 -126 58 -303 323 -255 381 18 21 96 19 148 -5z"/>
 <path d="M6704 1551 c-63 -29 -75 -85 -35 -160 11 -19 20 -21 102 -21 79 0 90 2 85 16 -29 77 138 70 197 -8 32 -42 16 -56 -118 -104 -57 -20 -95 -54 -95 -84 0 -11 11 -42 24 -68 71 -140 267 -239 458 -230 98 4 132 25 136 86 2 23 -4 54 -13 71 -15 31 -16 31 -100 31 -84 0 -85 0 -85 -25 0 -61 -135 -40 -171 27 -13 25 10 43 88 69 74 24 133 72 133 108 0 38 -46 115 -98 163 -129 121 -383 186 -508 129z"/>
 <path d="M7392 1554 c-48 -33 -30 -75 132 -316 69 -103 126 -190 126 -193 0 -3 -25 -5 -55 -5 -30 0 -55 -4 -55 -9 0 -6 17 -35 38 -65 l37 -55 66 -1 67 0 31 -47 c53 -82 56 -84 158 -114 144 -42 143 -43 73 61 -33 49 -60 92 -60 95 0 3 30 5 66 5 76 0 76 0 19 79 l-37 51 -72 0 -72 0 -122 180 c-67 99 -122 189 -122 200 0 16 8 19 56 22 l55 3 -38 55 c-44 63 -55 67 -183 69 -63 1 -91 -3 -108 -15z"/>
 <path d="M8288 1553 c-159 -99 113 -520 409 -633 80 -31 190 -38 248 -15 75 28 92 86 54 176 l-21 49 -98 0 -98 0 15 -40 c13 -32 13 -42 3 -55 -19 -23 -63 -18 -110 14 -83 56 -241 285 -244 354 -1 29 2 32 31 35 41 4 80 -17 136 -73 l46 -46 93 3 93 3 -75 75 c-80 80 -164 132 -254 156 -72 19 -194 18 -228 -3z"/>
 <path d="M8915 1556 c-65 -28 -82 -77 -51 -151 l15 -35 90 0 90 0 3 33 c3 31 4 32 58 35 63 3 112 -22 139 -70 21 -36 5 -53 -75 -78 -132 -40 -158 -70 -129 -147 55 -144 270 -260 466 -251 126 5 170 53 131 141 l-21 47 -85 0 -85 0 -3 -27 c-3 -25 -7 -28 -48 -31 -88 -6 -154 72 -90 105 14 7 50 22 81 33 67 24 109 62 109 98 0 106 -169 250 -349 297 -72 18 -205 19 -246 1z"/>
 <path d="M6240 1547 c0 -4 50 -81 111 -170 61 -89 156 -231 212 -314 l102 -152 98 -1 c76 0 97 3 91 13 -8 13 -109 161 -308 455 -64 94 -120 172 -124 173 -45 5 -182 2 -182 -4z"/>
 <path d="M7793 1544 c-2 -6 91 -151 207 -322 l212 -312 94 0 c52 0 94 3 94 7 0 3 -28 47 -62 97 -35 50 -131 192 -214 315 l-152 224 -87 1 c-54 1 -89 -3 -92 -10z"/>
 <path d="M4382 1370 c68 -99 207 -305 311 -458 126 -187 194 -279 210 -284 28 -8 177 -10 177 -2 0 3 -57 90 -127 192 -201 295 -339 498 -420 620 l-76 112 -99 0 -99 0 123 -180z"/>
 <path d="M6750 783 c0 -4 25 -43 56 -85 l55 -78 99 0 c55 0 100 3 100 8 -1 4 -24 41 -53 82 l-52 75 -103 3 c-56 1 -102 -1 -102 -5z"/>
 <path d="M8317 747 c62 -95 79 -116 98 -121 29 -8 185 -7 185 1 0 4 -23 42 -51 85 l-52 78 -103 0 -104 0 27 -43z"/>
 </g>
<g id="layer103" fill="#fefefe" stroke="none">
 <path d="M0 1690 l0 -1690 5120 0 5120 0 0 1690 0 1690 -5120 0 -5120 0 0 -1690z m936 645 c159 -234 357 -525 441 -648 83 -122 190 -278 237 -347 97 -143 222 -327 372 -547 57 -84 104 -157 104 -163 0 -5 -16 -10 -35 -10 -40 0 -46 7 -195 229 -52 78 -155 231 -229 339 -73 108 -208 307 -300 442 -356 527 -560 827 -658 971 -57 83 -103 153 -103 155 0 2 17 4 38 4 l39 0 289 -425z m-35 402 c8 -12 69 -101 134 -197 66 -96 165 -241 220 -322 55 -81 173 -255 262 -385 89 -131 197 -290 240 -353 43 -63 171 -250 283 -415 112 -165 223 -328 247 -362 24 -35 43 -68 43 -73 0 -7 -20 -10 -52 -8 l-53 3 -322 475 c-177 261 -362 534 -410 605 -49 72 -167 245 -262 385 -95 140 -233 344 -307 454 -74 109 -134 202 -134 207 0 5 21 9 48 9 37 -1 50 -5 63 -23z m532 -332 c132 -192 294 -431 362 -530 67 -99 153 -225 190 -280 75 -109 244 -358 494 -727 89 -130 161 -239 161 -242 0 -3 -44 -6 -98 -6 l-98 0 -106 157 c-205 305 -544 805 -785 1158 -56 83 -168 249 -250 369 -81 121 -179 265 -216 320 -103 152 -104 137 10 134 l97 -3 239 -350z m1607 143 c80 -117 183 -268 229 -336 46 -68 81 -126 77 -129 -3 -3 -29 4 -58 17 -93 40 -151 53 -233 53 -98 0 -156 -15 -213 -56 -56 -41 -82 -84 -89 -150 -10 -94 -9 -95 330 -595 64 -95 117 -175 117 -177 0 -3 -57 -6 -126 -7 l-125 -3 61 -85 c34 -47 66 -89 71 -95 5 -5 67 -12 137 -15 l127 -5 59 -87 60 -88 139 0 139 0 -23 38 c-13 20 -38 58 -56 83 -18 26 -33 49 -33 53 0 3 109 6 243 6 238 -1 242 -1 258 -23 70 -99 209 -309 209 -317 0 -7 -280 -10 -799 -10 l-800 0 -157 233 c-87 127 -195 287 -241 355 -46 67 -81 122 -78 122 3 0 23 -11 43 -25 74 -49 148 -69 257 -69 86 -1 106 2 144 22 l43 23 15 -20 c13 -20 24 -21 150 -21 117 0 134 2 129 15 -4 13 -290 436 -779 1157 -87 128 -109 146 -227 189 -96 34 -245 34 -314 -1 -87 -45 -136 -123 -136 -219 0 -22 -3 -41 -8 -41 -4 0 -27 30 -52 67 -25 37 -84 125 -132 196 -49 71 -88 135 -88 143 0 12 120 14 793 14 l793 0 144 -212z m-1037 -193 c18 -9 43 -33 57 -53 14 -20 50 -72 79 -115 30 -43 51 -80 48 -83 -3 -3 -24 0 -47 6 -137 37 -267 -16 -286 -116 -3 -19 -10 -34 -15 -32 -8 3 -140 190 -136 194 1 1 55 4 120 5 65 2 120 6 123 10 2 3 -15 33 -37 65 -23 32 -41 69 -41 82 0 48 72 68 135 37z m1187 -482 c14 -9 61 -64 104 -124 l80 -109 143 0 142 0 88 -131 c48 -71 118 -174 155 -227 37 -53 68 -100 68 -104 0 -5 -109 -8 -242 -8 l-243 1 -210 311 c-239 353 -238 352 -230 377 12 40 88 47 145 14z m-874 -19 c28 -7 57 -22 66 -31 48 -56 229 -336 224 -348 -3 -10 -17 -13 -43 -10 -136 16 -164 36 -286 212 -53 77 -97 150 -97 161 0 42 29 46 136 16z m3449 -73 c124 -44 226 -132 337 -292 72 -105 371 -547 382 -566 6 -10 -15 -13 -92 -13 -96 0 -99 1 -110 25 -14 31 -30 32 -34 3 -7 -50 -122 -64 -231 -27 -213 72 -457 349 -457 519 0 52 13 76 50 95 58 30 204 9 272 -39 41 -29 40 -17 -3 45 -70 100 -146 148 -235 149 -48 0 -69 -18 -62 -55 l5 -25 -92 0 -93 0 -21 49 c-24 56 -26 74 -11 101 24 45 85 60 225 56 79 -3 127 -10 170 -25z m-632 -249 c142 -58 267 -158 355 -285 93 -135 118 -245 68 -304 -62 -74 -246 -71 -414 7 -160 75 -345 274 -392 424 -16 49 -8 121 16 148 36 40 72 49 184 45 90 -3 116 -8 183 -35z m1837 19 c93 -26 185 -75 242 -129 52 -48 98 -125 98 -163 0 -36 -59 -84 -133 -108 -78 -26 -101 -44 -88 -69 25 -47 89 -72 145 -58 19 5 26 13 26 31 0 25 1 25 85 25 84 0 85 0 100 -31 9 -17 15 -48 13 -71 -4 -61 -38 -82 -136 -86 -191 -9 -387 90 -458 230 -13 26 -24 57 -24 68 0 30 38 64 95 84 134 48 150 62 118 104 -43 58 -170 86 -193 43 -5 -11 -7 -27 -4 -35 5 -14 -6 -16 -85 -16 -82 0 -91 2 -102 21 -40 75 -28 131 35 160 55 25 179 25 266 0z m645 10 c21 -4 40 -22 68 -61 l38 -55 -55 -3 c-48 -3 -56 -6 -56 -22 0 -11 55 -101 122 -200 l122 -180 72 0 72 0 37 -51 c57 -79 57 -79 -19 -79 -36 0 -66 -2 -66 -5 0 -3 27 -46 60 -95 70 -104 71 -103 -73 -61 -102 30 -105 32 -158 114 l-31 47 -67 0 -66 1 -37 55 c-21 30 -38 59 -38 65 0 5 25 9 55 9 30 0 55 2 55 5 0 3 -57 90 -126 193 -162 241 -180 283 -132 316 23 17 160 21 223 7z m901 -5 c90 -24 174 -76 254 -156 l75 -75 -93 -3 -93 -3 -46 46 c-56 56 -95 77 -136 73 -29 -3 -32 -6 -31 -35 3 -69 161 -298 244 -354 47 -32 91 -37 110 -14 10 13 10 23 -3 55 l-15 40 98 0 98 0 21 -49 c38 -90 21 -148 -54 -176 -58 -23 -168 -16 -248 15 -296 113 -568 534 -409 633 34 21 156 22 228 3z m645 -1 c180 -47 349 -191 349 -297 0 -36 -42 -74 -109 -98 -31 -11 -67 -26 -81 -33 -64 -33 2 -111 90 -105 41 3 45 6 48 31 l3 27 85 0 85 0 21 -47 c39 -88 -5 -136 -131 -141 -196 -9 -411 107 -466 251 -29 77 -3 107 129 147 80 25 96 42 75 78 -27 48 -76 73 -139 70 -54 -3 -55 -4 -58 -35 l-3 -33 -90 0 -90 0 -15 35 c-45 108 9 164 160 165 43 0 105 -7 137 -15z m-2739 -4 c4 -1 60 -79 124 -173 199 -294 300 -442 308 -455 6 -10 -15 -13 -91 -13 l-98 1 -102 152 c-56 83 -151 225 -212 314 -61 89 -111 166 -111 170 0 6 137 9 182 4z m1702 -222 c83 -123 179 -265 214 -315 34 -50 62 -94 62 -97 0 -4 -42 -7 -94 -7 l-94 0 -212 312 c-116 171 -209 316 -207 322 3 7 38 11 92 10 l87 -1 152 -224z m-3591 109 c81 -122 219 -325 420 -620 70 -102 127 -189 127 -192 0 -8 -149 -6 -177 2 -16 5 -84 97 -210 284 -104 153 -243 359 -311 458 l-123 180 99 0 99 0 76 -112z m2474 -728 c29 -41 52 -78 53 -82 0 -5 -45 -8 -100 -8 l-99 0 -55 78 c-31 42 -56 81 -56 85 0 4 46 6 102 5 l103 -3 52 -75z m1542 2 c28 -43 51 -81 51 -85 0 -8 -156 -9 -185 -1 -19 5 -36 26 -98 121 l-27 43 104 0 103 0 52 -78z"/>
 <path d="M5786 1394 c-29 -28 3 -106 90 -221 80 -104 152 -153 227 -153 63 0 73 40 31 124 -52 104 -148 212 -220 246 -49 24 -107 26 -128 4z"/>
 <path d="M4960 1425 c-48 -58 129 -323 255 -381 68 -32 129 -32 150 0 14 22 14 28 -1 67 -46 116 -175 272 -256 309 -52 24 -130 26 -148 5z"/>
 </g>

</svg>